<svg width="20" height="14" viewBox="0 0 20 14" fill="none" xmlns="http://www.w3.org/2000/svg">
<g clip-path="url(#clip0_1_82)">
<path d="M19.5 9.4375H19V6.69277C19 6.37031 18.8406 6.06055 18.5594 5.83203L15.4375 3.29551C15.1562 3.06699 14.775 2.9375 14.3781 2.9375H13V1.71875C13 1.0459 12.3281 0.5 11.5 0.5H3.5C2.67188 0.5 2 1.0459 2 1.71875V2.9375H0.25C0.1125 2.9375 0 3.02891 0 3.14062V3.54688C0 3.65859 0.1125 3.75 0.25 3.75H8.75C8.8875 3.75 9 3.84141 9 3.95312V4.35938C9 4.47109 8.8875 4.5625 8.75 4.5625H1.25C1.1125 4.5625 1 4.65391 1 4.76562V5.17188C1 5.28359 1.1125 5.375 1.25 5.375H7.75C7.8875 5.375 8 5.46641 8 5.57812V5.98438C8 6.09609 7.8875 6.1875 7.75 6.1875H0.25C0.1125 6.1875 0 6.27891 0 6.39062V6.79688C0 6.90859 0.1125 7 0.25 7H6.75C6.8875 7 7 7.09141 7 7.20312V7.60938C7 7.72109 6.8875 7.8125 6.75 7.8125H2V11.0625C2 12.4082 3.34375 13.5 5 13.5C6.65625 13.5 8 12.4082 8 11.0625H12C12 12.4082 13.3438 13.5 15 13.5C16.6562 13.5 18 12.4082 18 11.0625H19.5C19.775 11.0625 20 10.8797 20 10.6562V9.84375C20 9.62031 19.775 9.4375 19.5 9.4375ZM5 12.2812C4.17188 12.2812 3.5 11.7354 3.5 11.0625C3.5 10.3896 4.17188 9.84375 5 9.84375C5.82812 9.84375 6.5 10.3896 6.5 11.0625C6.5 11.7354 5.82812 12.2812 5 12.2812ZM15 12.2812C14.1719 12.2812 13.5 11.7354 13.5 11.0625C13.5 10.3896 14.1719 9.84375 15 9.84375C15.8281 9.84375 16.5 10.3896 16.5 11.0625C16.5 11.7354 15.8281 12.2812 15 12.2812ZM17.5 7H13V4.15625H14.3781L17.5 6.69277V7Z" fill="#444444"/>
</g>
<defs>
<clipPath id="clip0_1_82">
<rect width="20" height="13" fill="white" transform="translate(0 0.5)"/>
</clipPath>
</defs>
</svg>
