<svg width="18" height="18" viewBox="0 0 18 18" fill="none" xmlns="http://www.w3.org/2000/svg">
<path d="M0.158325 14.3L1.63333 12.8333L2.81666 14L3.69999 13.125L2.51666 11.95L3.69999 10.7667L5.75833 12.8333L6.64166 11.95L4.58332 9.88334L5.75833 8.70834L6.94166 9.88334L7.82499 9.00001L6.64166 7.82501L7.82499 6.64167L9.88332 8.70834L10.7667 7.82501L8.70832 5.75834L9.88332 4.58334L11.0583 5.75834L11.95 4.87501L10.7667 3.70001L11.95 2.51667L14 4.58334L14.8917 3.70001L12.8333 1.63334L14.3 0.15834L17.8417 3.70001L3.69999 17.8417L0.158325 14.3Z" fill="#444444"/>
</svg>
