<svg width="20" height="24" viewBox="0 0 20 24" fill="none" xmlns="http://www.w3.org/2000/svg">
<path d="M3.00002 23.6667C2.35835 23.6667 1.80924 23.4384 1.35269 22.9818C0.895353 22.5245 0.666687 21.975 0.666687 21.3333V7.33333C0.666687 6.69166 0.895353 6.14255 1.35269 5.68599C1.80924 5.22866 2.35835 4.99999 3.00002 4.99999H5.33335C5.33335 3.71666 5.7903 2.61805 6.70419 1.70416C7.61808 0.790273 8.71669 0.333328 10 0.333328C11.2834 0.333328 12.382 0.790273 13.2959 1.70416C14.2097 2.61805 14.6667 3.71666 14.6667 4.99999H17C17.6417 4.99999 18.1912 5.22866 18.6485 5.68599C19.1051 6.14255 19.3334 6.69166 19.3334 7.33333V21.3333C19.3334 21.975 19.1051 22.5245 18.6485 22.9818C18.1912 23.4384 17.6417 23.6667 17 23.6667H3.00002ZM3.00002 21.3333H17V7.33333H14.6667V9.66666C14.6667 9.99722 14.5551 10.2741 14.3319 10.4973C14.1079 10.7213 13.8306 10.8333 13.5 10.8333C13.1695 10.8333 12.8926 10.7213 12.6694 10.4973C12.4454 10.2741 12.3334 9.99722 12.3334 9.66666V7.33333H7.66669V9.66666C7.66669 9.99722 7.55508 10.2741 7.33185 10.4973C7.10785 10.7213 6.83058 10.8333 6.50002 10.8333C6.16947 10.8333 5.89258 10.7213 5.66935 10.4973C5.44535 10.2741 5.33335 9.99722 5.33335 9.66666V7.33333H3.00002V21.3333ZM7.66669 4.99999H12.3334C12.3334 4.35833 12.1051 3.80922 11.6485 3.35266C11.1912 2.89533 10.6417 2.66666 10 2.66666C9.35835 2.66666 8.80924 2.89533 8.35269 3.35266C7.89535 3.80922 7.66669 4.35833 7.66669 4.99999Z" fill="#F5F5F5"/>
</svg>
