<svg width="24" height="23" viewBox="0 0 24 23" fill="none" xmlns="http://www.w3.org/2000/svg">
<path d="M12.1166 19.3652L12 19.487L11.8716 19.3652C6.32998 14.1183 2.66665 10.6487 2.66665 7.13044C2.66665 4.69565 4.41665 2.86957 6.74998 2.86957C8.54665 2.86957 10.2966 4.08696 10.915 5.74261H13.085C13.7033 4.08696 15.4533 2.86957 17.25 2.86957C19.5833 2.86957 21.3333 4.69565 21.3333 7.13044C21.3333 10.6487 17.67 14.1183 12.1166 19.3652ZM17.25 0.434784C15.22 0.434784 13.2716 1.42087 12 2.96696C10.7283 1.42087 8.77998 0.434784 6.74998 0.434784C3.15665 0.434784 0.333313 3.3687 0.333313 7.13044C0.333313 11.72 4.29998 15.4817 10.3083 21.167L12 22.7739L13.6916 21.167C19.7 15.4817 23.6666 11.72 23.6666 7.13044C23.6666 3.3687 20.8433 0.434784 17.25 0.434784Z" fill="#515151"/>
</svg>
